<?xml version="1.0" encoding="utf-8" standalone="no"?><!DOCTYPE svg PUBLIC "-//W3C//DTD SVG 20010904//EN" "http://www.w3.org/TR/2001/REC-SVG-20010904/DTD/svg10.dtd"><svg xmlns="http://www.w3.org/2000/svg" width="529" height="510" xmlns:xlink="http://www.w3.org/1999/xlink"><source><![CDATA[given->step 1:
Note over given: Update version
step 1->step 2: merge
step 2->final solution: merge
Note over step 1: Update assignment
step 1->step 2: merge
Note over step 2: Update solution
step 2->final solution: merge
Note over given,final solution:Ship shallow checkout to participants]]></source><desc></desc><defs><marker viewBox="0 0 5 5" markerWidth="5" markerHeight="5" orient="auto" refX="5" refY="2.5" id="markerArrowBlock"><path d="M 0 0 L 5 2.5 L 0 5 z"></path></marker><marker viewBox="0 0 9.6 16" markerWidth="4" markerHeight="16" orient="auto" refX="9.6" refY="8" id="markerArrowOpen"><path d="M 9.6,8 1.92,16 0,13.7 5.76,8 0,2.286 1.92,0 9.6,8 z"></path></marker></defs><g class="title"></g><g class="actor"><rect x="47.75" y="20" width="67.5" height="39" stroke="#000000" fill="#ffffff" style="stroke-width: 2;"></rect><text x="57.75" y="45" style="font-size: 16px; font-family: &quot;Andale Mono&quot;, monospace;"><tspan x="57.75">given</tspan></text></g><g class="actor"><rect x="47.75" y="451" width="67.5" height="39" stroke="#000000" fill="#ffffff" style="stroke-width: 2;"></rect><text x="57.75" y="476" style="font-size: 16px; font-family: &quot;Andale Mono&quot;, monospace;"><tspan x="57.75">given</tspan></text></g><line x1="81.5" x2="81.5" y1="59" y2="451" stroke="#000000" fill="none" style="stroke-width: 2;"></line><g class="actor"><rect x="138.75" y="20" width="77" height="39" stroke="#000000" fill="#ffffff" style="stroke-width: 2;"></rect><text x="148.75" y="45" style="font-size: 16px; font-family: &quot;Andale Mono&quot;, monospace;"><tspan x="148.75">step 1</tspan></text></g><g class="actor"><rect x="138.75" y="451" width="77" height="39" stroke="#000000" fill="#ffffff" style="stroke-width: 2;"></rect><text x="148.75" y="476" style="font-size: 16px; font-family: &quot;Andale Mono&quot;, monospace;"><tspan x="148.75">step 1</tspan></text></g><line x1="177.25" x2="177.25" y1="59" y2="451" stroke="#000000" fill="none" style="stroke-width: 2;"></line><g class="actor"><rect x="235.75" y="20" width="77" height="39" stroke="#000000" fill="#ffffff" style="stroke-width: 2;"></rect><text x="245.75" y="45" style="font-size: 16px; font-family: &quot;Andale Mono&quot;, monospace;"><tspan x="245.75">step 2</tspan></text></g><g class="actor"><rect x="235.75" y="451" width="77" height="39" stroke="#000000" fill="#ffffff" style="stroke-width: 2;"></rect><text x="245.75" y="476" style="font-size: 16px; font-family: &quot;Andale Mono&quot;, monospace;"><tspan x="245.75">step 2</tspan></text></g><line x1="274.25" x2="274.25" y1="59" y2="451" stroke="#000000" fill="none" style="stroke-width: 2;"></line><g class="actor"><rect x="346.5" y="20" width="153" height="39" stroke="#000000" fill="#ffffff" style="stroke-width: 2;"></rect><text x="356.5" y="45" style="font-size: 16px; font-family: &quot;Andale Mono&quot;, monospace;"><tspan x="356.5">final solution</tspan></text></g><g class="actor"><rect x="346.5" y="451" width="153" height="39" stroke="#000000" fill="#ffffff" style="stroke-width: 2;"></rect><text x="356.5" y="476" style="font-size: 16px; font-family: &quot;Andale Mono&quot;, monospace;"><tspan x="356.5">final solution</tspan></text></g><line x1="423" x2="423" y1="59" y2="451" stroke="#000000" fill="none" style="stroke-width: 2;"></line><g class="signal"><text x="129.375" y="84" style="font-size: 16px; font-family: &quot;Andale Mono&quot;, monospace;"><tspan x="129.375"></tspan></text><line x1="81.5" x2="177.25" y1="79" y2="79" stroke="#000000" fill="none" style="stroke-width: 2; marker-end: url(&quot;#markerArrowBlock&quot;);"></line></g><g class="note"><rect x="10" y="99" width="143" height="29" stroke="#000000" fill="#ffffff" style="stroke-width: 2;"></rect><text x="15" y="119" style="font-size: 16px; font-family: &quot;Andale Mono&quot;, monospace;"><tspan x="15">Update version</tspan></text></g><g class="signal"><text x="202" y="158.5" style="font-size: 16px; font-family: &quot;Andale Mono&quot;, monospace;"><tspan x="202">merge</tspan></text><line x1="177.25" x2="274.25" y1="167" y2="167" stroke="#000000" fill="none" style="stroke-width: 2; marker-end: url(&quot;#markerArrowBlock&quot;);"></line></g><g class="signal"><text x="324.875" y="197.5" style="font-size: 16px; font-family: &quot;Andale Mono&quot;, monospace;"><tspan x="324.875">merge</tspan></text><line x1="274.25" x2="423" y1="206" y2="206" stroke="#000000" fill="none" style="stroke-width: 2; marker-end: url(&quot;#markerArrowBlock&quot;);"></line></g><g class="note"><rect x="91.5" y="226" width="171.5" height="29" stroke="#000000" fill="#ffffff" style="stroke-width: 2;"></rect><text x="96.5" y="246" style="font-size: 16px; font-family: &quot;Andale Mono&quot;, monospace;"><tspan x="96.5">Update assignment</tspan></text></g><g class="signal"><text x="202" y="285.5" style="font-size: 16px; font-family: &quot;Andale Mono&quot;, monospace;"><tspan x="202">merge</tspan></text><line x1="177.25" x2="274.25" y1="294" y2="294" stroke="#000000" fill="none" style="stroke-width: 2; marker-end: url(&quot;#markerArrowBlock&quot;);"></line></g><g class="note"><rect x="198" y="314" width="152.5" height="29" stroke="#000000" fill="#ffffff" style="stroke-width: 2;"></rect><text x="203" y="334" style="font-size: 16px; font-family: &quot;Andale Mono&quot;, monospace;"><tspan x="203">Update solution</tspan></text></g><g class="signal"><text x="324.875" y="373.5" style="font-size: 16px; font-family: &quot;Andale Mono&quot;, monospace;"><tspan x="324.875">merge</tspan></text><line x1="274.25" x2="423" y1="382" y2="382" stroke="#000000" fill="none" style="stroke-width: 2; marker-end: url(&quot;#markerArrowBlock&quot;);"></line></g><g class="note"><rect x="71.5" y="402" width="361.5" height="29" stroke="#000000" fill="#ffffff" style="stroke-width: 2;"></rect><text x="76.5" y="422" style="font-size: 16px; font-family: &quot;Andale Mono&quot;, monospace;"><tspan x="76.5">Ship shallow checkout to participants</tspan></text></g></svg>